{"title":"Danny.Collins.2015.720p.BluRay.H264.AAC-RARBG","uid":12036884,"size":1404103801,"categoryP":"video","categoryS":"hd___movies","magnet":"?xt=urn:btih:59b7a68ce0bc9912053126cd016fc6534b8290b1&amp;dn=Danny.Collins.2015.720p.BluRay.H264.AAC-RARBG&amp;tr=udp%3A%2F%2Ftracker.openbittorrent.com%3A80&amp;tr=udp%3A%2F%2Fopen.demonii.com%3A1337&amp;tr=udp%3A%2F%2Ftracker.coppersurfer.tk%3A6969&amp;tr=udp%3A%2F%2Fexodus.desync.com%3A6969","seeders":0,"leechers":1,"uploader":"vickey1992","files":6,"time":1434698747,"description":"Video\nID                                       : 1\nFormat                                   : AVC\nFormat/Info                              : Advanced Video Codec\nFormat profile                           : &lt;a class=&quot;__cf_email__&quot; href=&quot;/cdn-cgi/l/email-protection&quot; data-cfemail=&quot;1c54757b745c5028322d&quot;&gt;[email&amp;#160;protected]&lt;/a&gt;&lt;script data-cfhash='f9e31' type=&quot;text/javascript&quot;&gt;\n/* &lt;![CDATA[ */!function(){try{var t=&quot;currentScript&quot;in document?document.currentScript:function(){for(var t=document.getElementsByTagName(&quot;script&quot;),e=t.length;e--;)if(t[e].getAttribute(&quot;data-cfhash&quot;))return t[e]}();if(t&amp;&amp;t.previousSibling){var e,r,n,i,c=t.previousSibling,a=c.getAttribute(&quot;data-cfemail&quot;);if(a){for(e=&quot;&quot;,r=parseInt(a.substr(0,2),16),n=2;a.length-n;n+=2)i=parseInt(a.substr(n,2),16)^r,e+=String.fromCharCode(i);e=document.createTextNode(e),c.parentNode.replaceChild(e,c)}t.parentNode.removeChild(t);}}catch(u){}}()/* ]]&gt; */&lt;/script&gt;\nFormat settings, CABAC                   : Yes\nFormat settings, ReFrames                : 4 frames\nCodec ID                                 : avc1\nCodec ID/Info                            : Advanced Video Coding\nDuration                                 : 1h 47mn\nBit rate                                 : 1 500 Kbps\nWidth                                    : 1 280 pixels\nHeight                                   : 536 pixels\nDisplay aspect ratio                     : 2.40:1\nFrame rate mode                          : Constant\nFrame rate                               : 23.976 fps\nColor space                              : YUV\nChroma subsampling                       : 4:2:0\nBit depth                                : 8 bits\nScan type                                : Progressive\nBits/(Pixel*Frame)                       : 0.091\nStream size                              : 1.12 GiB (87%)\nWriting library                          : x264 core 144 r2525M 40bb568\nEncoding settings                        : cabac=1 / ref=4 / deblock=1:-1:-1 / analyse=0x3:0x113 / me=umh / subme=9 / psy=1 / psy_rd=1.00:0.15 / mixed_ref=1 / me_range=24 / chroma_me=1 / trellis=2 / 8x8dct=1 / cqm=0 / deadzone=21,11 / fast_pskip=1 / chroma_qp_offset=-3 / threads=32 / lookahead_threads=4 / sliced_threads=0 / nr=0 / decimate=1 / interlaced=0 / bluray_compat=0 / constrained_intra=0 / bframes=3 / b_pyramid=2 / b_adapt=1 / b_bias=0 / direct=1 / weightb=1 / open_gop=0 / weightp=2 / keyint=250 / keyint_min=25 / scenecut=40 / intra_refresh=0 / rc_lookahead=50 / rc=2pass / mbtree=1 / bitrate=1500 / ratetol=1.0 / qcomp=0.60 / qpmin=0 / qpmax=69 / qpstep=4 / cplxblur=20.0 / qblur=0.5 / vbv_maxrate=31250 / vbv_bufsize=31250 / nal_hrd=none / filler=0 / ip_ratio=1.40 / aq=3:1.00\nEncoded date                             : UTC 1904-01-01 00:00:00\nTagged date                              : UTC 1904-01-01 00:00:00\n\nAudio\nID                                       : 2\nFormat                                   : AAC\nFormat/Info                              : Advanced Audio Codec\nFormat profile                           : LC\nCodec ID                                 : 40\nDuration                                 : 1h 47mn\nBit rate mode                            : Constant\nBit rate                                 : 224 Kbps\nChannel(s)                               : 2 channels\nChannel(s)_Original                      : 6 channels\nChannel positions                        : Front: L C R, Side: L R, LFE\nSampling rate                            : 48.0 KHz\nCompression mode                         : Lossy\nStream size                              : 172 MiB (13%)\nLanguage                                 : English\nEncoded date                             : UTC 1904-01-01 00:00:00\nTagged date                              : UTC 1904-01-01 00:00:00\n\nMenu #1\nID                                       : 3\nCodec ID                                 : text\nDuration                                 : 1h 47mn\nLanguage                                 : English\nEncoded date                             : UTC 1904-01-01 00:00:00\nTagged date                              : UTC 1904-01-01 00:00:00\nBit rate mode                            : CBR\n00:00:00.000                             : 00:00:00.000\n00:03:55.987                             : 00:03:55.944\n00:11:27.480                             : 00:11:27.437\n00:16:10.471                             : 00:16:10.428\n00:19:58.699                             : 00:19:58.656\n00:24:40.689                             : 00:24:40.646\n00:29:53.418                             : 00:29:53.375\n00:36:10.378                             : 00:36:10.335\n00:40:14.413                             : 00:40:14.370\n00:44:05.561                             : 00:44:05.518\n00:49:00.856                             : 00:49:00.813\n00:55:55.520                             : 00:55:55.477\n01:02:47.557                             : 01:02:47.514\n01:07:23.541                             : 01:07:23.498\n01:14:47.693                             : 01:14:47.650\n01:20:12.893                             : 01:20:12.850\n01:25:11.816                             : 01:25:11.773\n01:30:40.436                             : 01:30:40.393\n01:36:00.881                             : 01:36:00.838\n01:41:24.872                             : 01:41:24.829\n\nMenu #2\n00:00:00.043                             : 00:00:00.000\n00:03:55.987                             : 00:03:55.944\n00:11:27.480                             : 00:11:27.437\n00:16:10.471                             : 00:16:10.428\n00:19:58.699                             : 00:19:58.656\n00:24:40.689                             : 00:24:40.646\n00:29:53.418                             : 00:29:53.375\n00:36:10.378                             : 00:36:10.335\n00:40:14.413                             : 00:40:14.370\n00:44:05.561                             : 00:44:05.518\n00:49:00.856                             : 00:49:00.813\n00:55:55.520                             : 00:55:55.477\n01:02:47.557                             : 01:02:47.514\n01:07:23.541                             : 01:07:23.498\n01:14:47.693                             : 01:14:47.650\n01:20:12.893                             : 01:20:12.850\n01:25:11.816                             : 01:25:11.773\n01:30:40.436                             : 01:30:40.393\n01:36:00.881                             : 01:36:00.838\n01:41:24.872                             : 01:41:24.829","torrent":{"xt":"urn:btih:59b7a68ce0bc9912053126cd016fc6534b8290b1","amp;dn":"Danny.Collins.2015.720p.BluRay.H264.AAC-RARBG","amp;tr":["udp%3A%2F%2Ftracker.openbittorrent.com%3A80","udp%3A%2F%2Fopen.demonii.com%3A1337","udp%3A%2F%2Ftracker.coppersurfer.tk%3A6969","udp%3A%2F%2Fexodus.desync.com%3A6969"],"infoHash":"59b7a68ce0bc9912053126cd016fc6534b8290b1","infoHashBuffer":{"type":"Buffer","data":[89,183,166,140,224,188,153,18,5,49,38,205,1,111,198,83,75,130,144,177]},"announce":[],"urlList":[]}}